<?xml version="1.0" encoding="utf-8"?>
<!-- Generator: Adobe Illustrator 18.0.0, SVG Export Plug-In . SVG Version: 6.00 Build 0)  -->
<!DOCTYPE svg PUBLIC "-//W3C//DTD SVG 1.1//EN" "http://www.w3.org/Graphics/SVG/1.1/DTD/svg11.dtd">
<svg version="1.1" xmlns="http://www.w3.org/2000/svg" xmlns:xlink="http://www.w3.org/1999/xlink" x="0px" y="0px"
	 id="welcomeTextSVG"  viewBox="0 -40 645.5 120" style="enable-background:new 0 -40 645.5 120;" xml:space="preserve">
<g>
	<path class="st0" d="M44.3,5.8c-2.6,4.7-4.9,11.9-7,21.4c-1.7,7.9-2.5,12.6-2.4,14.3c-0.1,0.3,0,0.6,0,1c0.1,0.4,0.1,0.7,0.1,0.9
		c-0.2,1.6-0.7,2.4-1.4,2.5c-0.5,0.1-2.2-0.5-5-1.8c-2.9-1.2-4.4-2.1-4.6-2.8c0-0.1-0.1-1.1-0.1-3.1c-1.4-4.4-2.4-8.9-2.9-13.4
		c-0.9,2.4-1.9,4.8-2.8,7.2c-0.9,2.6-1.3,5.2-1.2,7.8c-0.1,0.3-0.1,0.7,0,1.2c0.1,0.5,0.1,1,0,1.2c-0.3,1.4-0.8,2.2-1.4,2.5
		c-0.2,0.1-0.5,0.1-0.8,0.1c-1.5,0-3.3-0.4-5.2-1.1C7.4,43,6,42,5.7,40.8c0-0.3,0-1.1-0.1-2.6C4,32.5,3,27.3,2.5,22.7
		c-0.5-4.4-0.8-9.8-0.6-16.1C1.5,5,1.4,4,1.6,3.6c0.4-1.4,1-2.1,1.8-2.1c0.9,0,2.2,0.5,4.1,1.5s2.9,1.8,3,2.4c0,0.2,0,1.2-0.1,2.9
		c-0.1,1.5-0.2,3-0.2,4.2c0,2.8,0.5,7.5,1.5,13.9l7-21.9c0.1-0.4,0.3-1,0.6-1.8c0.4-0.5,0.9-0.8,1.5-0.9c0.4-0.1,1.7,0.5,4,1.6
		c2.3,1.1,3.5,1.9,3.5,2.3c0,0.2,0,1.4-0.1,3.4c-0.1,2.4-0.1,4.4-0.1,6.2c0,4.3,0.3,8,0.8,11.1c0.9-4.6,2.1-9.4,3.5-14.3
		c1.1-3.9,2-6.5,2.6-8c0.4-1.7,1.2-2.4,2.6-2.2c1.1,0.2,2.4,0.5,3.7,1.1C43,4,44,4.8,44.3,5.8z"/>
	<path class="st0" d="M62.3,34.5c0.3,0.5-0.4,2-2,4.4c-1.7,2.6-3.4,4.4-5.1,5.4c-0.2,0.1-0.5,0.1-0.9,0.1c-1.3,0-3-0.4-5.1-1.2
		c-2.2-0.8-3.7-1.7-4.4-2.6c-1.9-2.5-2.9-6-2.9-10.4c0-4.2,0.9-7.9,2.5-11.1c1.8-3.5,4.2-5.3,7-5.4c1,0,2.3,0.2,3.8,0.8
		c1.8,0.7,3.3,1.6,4.5,2.8c0.3,0.3,0.6,1.2,0.9,2.7c0.3,1.6,0.5,3.2,0.5,4.7c0,2.3-0.4,3.8-1.1,4.7c-3.4,1.1-6.9,1.7-10.5,1.9
		c-0.1,1.6,0.1,3.4,0.6,5.1c0.5,1.8,0.9,2.7,1.4,2.8c0.7,0,1.5-0.5,2.4-1.6c0.8-1,1.4-1.8,1.6-2.5c0.2-1,0.5-2,0.9-3.1
		c0.5-0.1,1.6,0.2,3.2,0.8C61.1,33.5,62,34,62.3,34.5z M53.4,19.2c-0.6-0.1-1.4,0.8-2.4,2.7c-1,1.9-1.6,3.6-1.8,5.4
		c1.5-0.1,2.7-0.4,3.6-1.1c0.5-0.4,0.8-2.1,0.8-5C53.7,19.9,53.6,19.3,53.4,19.2z"/>
	<path class="st0" d="M75.6,4.4c0,0.2-0.1,0.5-0.2,0.9S75.1,6,75.1,6.1c-0.2,0.7-0.4,1.7-0.6,3.1v30.7c0,0.4,0.1,0.8,0.3,1.1
		c0.2,0.3,0.3,0.6,0.3,0.8c0,2.1-0.4,3.3-1.2,3.5c-0.3,0.1-1.4-0.2-3.2-0.7c-1.8-0.5-2.9-0.9-3.3-1.2c-0.7-0.6-1.1-1.2-1.1-1.8
		c0-0.1,0.1-0.3,0.2-0.5c0.1-0.2,0.2-0.4,0.2-0.9V5c0-0.2-0.1-0.4-0.2-0.6c-0.1-0.2-0.2-0.4-0.2-0.6c0.1-0.8,0.7-1.3,1.9-1.6
		c0.3-0.1,1-0.1,2.1,0c1.2,0.1,2.3,0.3,3.2,0.5C74.9,3.1,75.6,3.6,75.6,4.4z"/>
	<path class="st0" d="M100.6,33.5c0,0.6-0.6,1.5-1.6,2.5c-0.9,2-1.7,3.4-2.4,4.2c-1.5,2-3.4,3.2-5.6,3.6C90.4,43.9,90,44,89.6,44
		c-1.9,0-4.2-0.9-6.9-2.7c-2.4-1.6-3.5-5.3-3.5-11.1c0-4.3,0.6-8.1,1.9-11.6c1.4-3.8,3.2-5.7,5.2-5.9c1.6-0.1,3.6,0.3,6,1.3
		c2.4,1,4,2,4.8,3.2c0.7,1,1,2.2,1,3.9c0,0.4,0,1.1-0.1,1.9c-0.1,0.8-0.1,1.4,0,1.7c0.1,0.9,0.1,1.3,0.1,1.2c0,1.1-0.5,1.6-1.6,1.6
		c-1.2,0-2.3-0.2-3.4-0.6c-1.4-0.5-2.3-1.2-2.6-2c-0.1-0.3,0-0.7,0.4-1.2c0.4-0.5,0.5-0.9,0.5-1.2c0.1-0.2,0.1-0.8,0.1-1.8
		c0-2-0.3-3-1-3.1c-1.1-0.1-2,1.5-2.7,4.8c-0.7,2.9-1,6.1-1,9.6c0,4.1,0.5,6.3,1.5,6.5c0.8,0.2,1.8-0.7,3-2.5c1-1.6,1.6-2.6,1.7-3.2
		c0.1-0.6,0.2-1.1,0.2-1.7c0.2-0.9,0.8-1.4,1.8-1.3c0.6,0.1,1.6,0.5,3.1,1.1c1.5,0.7,2.3,1.2,2.4,1.6
		C100.6,33,100.6,33.3,100.6,33.5z"/>
	<path class="st0" d="M121.4,14.6c1.8,0.9,3.2,2.6,4.2,5.3c0.9,2.4,1.3,5.2,1.3,8.5c0,4.5-0.8,8.4-2.3,11.7
		c-1.7,3.5-3.8,5.1-6.4,4.8c-0.9-0.2-2.3-0.5-4.2-0.9c-1.4-0.2-2.6-0.4-3.7-0.8c-1.9-0.5-3.4-2.1-4.5-4.9c-1-2.5-1.6-5.5-1.6-8.9
		c0-3.4,0.5-6.6,1.6-9.4c1.2-3.1,2.9-5.2,5-6.5c0.4-0.2,0.9-0.3,1.5-0.3c0.7,0,2,0.2,4,0.6C117.7,14.1,119.4,14.2,121.4,14.6z
		 M115.8,19.1c-0.9,0-1.7,1.1-2.5,3.3c-0.8,2.2-1.1,4.3-1.1,6.3c0,2.4,0.3,4.8,0.8,7.1c0.6,2.5,1.4,3.9,2.2,4.1c1.1,0.2,2-1,2.9-3.6
		c0.8-2.5,1.2-5.3,1.2-8.4c0-1.7-0.2-3.4-0.6-5.1C118,20.3,117.1,19.1,115.8,19.1z"/>
	<path class="st0" d="M167.8,40.1c0.3,0.6,0.4,1.3,0.4,1.9c0,1-0.4,1.7-1.1,2.1c-0.2,0.1-0.7,0.1-1.2,0.1c-1.1,0-2.5-0.2-4.1-0.5
		c-1.6-0.4-2.5-0.7-2.9-1c-0.2-0.2-0.2-0.4-0.2-0.7c0-0.4,0.2-1,0.8-1.8c0.5-0.8,0.8-1.4,0.8-1.8c0.1-13.1,0-19.7-0.3-19.9
		c-0.5-0.2-1.6,1.1-3.2,4c-1.8,3.1-2.7,5.7-2.7,8v9.8c0.2,0.8,0.4,1.4,0.4,1.8c0,0.8-0.4,1.5-1.3,1.9c-0.2,0.1-0.6,0.1-1.2,0.1
		c-1.1,0-2.5-0.2-4.1-0.5c-1.6-0.4-2.5-0.7-2.8-1c-0.1-0.1-0.2-0.3-0.2-0.5c0-0.3,0.2-0.9,0.7-1.8c0.5-0.9,0.7-1.5,0.7-1.9
		c0.1-13.1,0-19.7-0.3-19.9c-0.5-0.2-1.6,1.3-3.4,4.5c-1.9,3.3-2.9,5.9-2.9,7.6V40c0.4,0.4,0.7,1,0.7,1.6c0,1.3-0.6,2.1-1.7,2.6
		c-0.1,0.1-0.3,0.1-0.6,0.1c-0.9,0-2.2-0.2-3.9-0.6c-1.7-0.4-2.7-0.8-2.9-1c-0.2-0.3-0.3-0.6-0.3-0.9c0-0.3,0.2-0.7,0.6-1.2
		c0.4-0.5,0.6-0.8,0.6-0.9V16.4c0-0.3-0.1-0.6-0.4-1.1c-0.3-0.4-0.4-0.8-0.2-1.1c0.2-0.7,0.7-1.1,1.5-1.3c0.5-0.1,1.8,0,3.8,0.5
		c2.1,0.5,3.3,1.1,3.5,1.6c0.1,0.4,0.1,0.9-0.1,1.6c-0.4,1.2-0.5,1.8-0.5,2c0,0.4,0.1,0.8,0.2,1.2c0.5-1.7,1.2-3.1,2.1-4.5
		c1.1-1.6,2.2-2.3,3.3-2.3c1.1,0,2.5,0.4,4.3,1.2c1.7,0.8,2.8,1.5,3.2,2c0.3,0.4,0.6,1.6,1,3.6c1.4-2.5,2.1-4,2.3-4.4
		c1.1-1.7,2.2-2.5,3.2-2.5c1.1,0,2.6,0.4,4.4,1.2c1.8,0.8,2.8,1.5,3.1,2.1C167.3,18.5,167.8,26.4,167.8,40.1z"/>
	<path class="st0" d="M192.6,34.5c0.3,0.5-0.4,2-2,4.4c-1.7,2.6-3.4,4.4-5.1,5.4c-0.2,0.1-0.5,0.1-0.9,0.1c-1.3,0-3-0.4-5.1-1.2
		c-2.2-0.8-3.7-1.7-4.4-2.6c-1.9-2.5-2.9-6-2.9-10.4c0-4.2,0.9-7.9,2.5-11.1c1.8-3.5,4.2-5.3,7-5.4c1,0,2.3,0.2,3.8,0.8
		c1.8,0.7,3.3,1.6,4.5,2.8c0.3,0.3,0.6,1.2,0.9,2.7c0.3,1.6,0.5,3.2,0.5,4.7c0,2.3-0.4,3.8-1.1,4.7c-3.4,1.1-6.9,1.7-10.5,1.9
		c-0.1,1.6,0.1,3.4,0.6,5.1c0.5,1.8,0.9,2.7,1.4,2.8c0.7,0,1.5-0.5,2.4-1.6c0.8-1,1.4-1.8,1.6-2.5c0.2-1,0.5-2,0.9-3.1
		c0.5-0.1,1.6,0.2,3.2,0.8C191.4,33.5,192.3,34,192.6,34.5z M183.7,19.2c-0.6-0.1-1.4,0.8-2.4,2.7c-1,1.9-1.6,3.6-1.8,5.4
		c1.5-0.1,2.7-0.4,3.6-1.1c0.5-0.4,0.8-2.1,0.8-5C183.9,19.9,183.8,19.3,183.7,19.2z"/>
	<path class="st0" d="M225.3,18.8c0,0.6-0.2,1.1-0.6,1.6c-0.4,0.5-0.8,0.7-1.2,0.7c-0.1,0-0.2,0-0.4,0c-0.5-0.2-1.5-0.2-3.1-0.2
		v19.7c0,0,0.1,0.2,0.3,0.8c0.2,0.6,0.3,1.1,0.3,1.5c0,1-0.7,1.5-2,1.6c-0.7,0-2-0.3-3.8-0.9c-2-0.7-3.1-1.3-3.2-1.8
		c-0.1-0.2,0-0.7,0.3-1.5c0.3-0.8,0.5-1.3,0.5-1.7V20.7h-1.7c-0.6,0-1.4-0.6-2.3-1.7c-0.9-1.1-1.4-2-1.4-2.7c0-0.5,0.2-1,0.6-1.4
		c0.4-0.4,0.8-0.6,1.3-0.6h3.6V9.9c-0.5-0.7-0.8-1.4-0.8-2.1c0-0.7,0.3-1.1,0.9-1.3c0.3-0.1,0.7-0.1,1.2-0.1c1.2,0,2.7,0.2,4.3,0.6
		c1.6,0.4,2.7,0.8,3.2,1.2c0.2,0.2,0.3,0.4,0.3,0.7c0,0.3-0.3,0.8-0.8,1.5c-0.5,0.7-0.8,1.1-0.9,1.4v2.7h1.6c0.3,0,1,0.6,2.1,1.8
		C224.8,17.4,225.3,18.3,225.3,18.8z"/>
	<path class="st0" d="M243.8,14.6c1.8,0.9,3.2,2.6,4.2,5.3c0.9,2.4,1.3,5.2,1.3,8.5c0,4.5-0.8,8.4-2.3,11.7
		c-1.7,3.5-3.8,5.1-6.4,4.8c-0.9-0.2-2.3-0.5-4.2-0.9c-1.4-0.2-2.6-0.4-3.7-0.8c-1.9-0.5-3.4-2.1-4.5-4.9c-1-2.5-1.6-5.5-1.6-8.9
		c0-3.4,0.5-6.6,1.6-9.4c1.2-3.1,2.9-5.2,5-6.5c0.4-0.2,0.9-0.3,1.5-0.3c0.7,0,2,0.2,4,0.6C240.1,14.1,241.8,14.2,243.8,14.6z
		 M238.2,19.1c-0.9,0-1.7,1.1-2.5,3.3c-0.8,2.2-1.1,4.3-1.1,6.3c0,2.4,0.3,4.8,0.8,7.1c0.6,2.5,1.4,3.9,2.2,4.1c1.1,0.2,2-1,2.9-3.6
		c0.8-2.5,1.2-5.3,1.2-8.4c0-1.7-0.2-3.4-0.6-5.1C240.4,20.3,239.5,19.1,238.2,19.1z"/>
	<path class="st0" d="M300.3,40.1c0.3,0.6,0.4,1.3,0.4,1.9c0,1-0.4,1.7-1.2,2.1c-0.2,0.1-0.7,0.1-1.2,0.1c-1.1,0-2.5-0.2-4-0.5
		c-1.6-0.4-2.5-0.7-2.9-1c-0.2-0.2-0.2-0.4-0.2-0.7c0-0.4,0.2-1,0.7-1.8c0.5-0.8,0.8-1.4,0.8-1.8c0.1-13.1,0-19.7-0.3-19.9
		c-0.5-0.2-1.6,1.1-3.3,4c-1.8,3.1-2.7,5.7-2.7,8v9.8c0.2,0.8,0.4,1.4,0.4,1.8c0,0.8-0.4,1.5-1.3,1.9c-0.2,0.1-0.6,0.1-1.2,0.1
		c-1.1,0-2.5-0.2-4.1-0.5c-1.6-0.4-2.5-0.7-2.8-1c-0.1-0.1-0.2-0.3-0.2-0.5c0-0.3,0.2-0.9,0.7-1.8c0.5-0.9,0.7-1.5,0.7-1.9
		c0.1-13.1,0-19.7-0.3-19.9c-0.5-0.2-1.6,1.3-3.4,4.5c-1.9,3.3-2.9,5.9-2.9,7.6V40c0.4,0.4,0.7,1,0.7,1.6c0,1.3-0.6,2.1-1.7,2.6
		c-0.1,0.1-0.3,0.1-0.6,0.1c-0.9,0-2.2-0.2-3.9-0.6c-1.7-0.4-2.7-0.8-2.9-1c-0.2-0.3-0.3-0.6-0.3-0.9c0-0.3,0.2-0.7,0.6-1.2
		c0.4-0.5,0.6-0.8,0.6-0.9V16.4c0-0.3-0.1-0.6-0.4-1.1c-0.3-0.4-0.4-0.8-0.2-1.1c0.2-0.7,0.7-1.1,1.5-1.3c0.5-0.1,1.8,0,3.8,0.5
		c2.1,0.5,3.3,1.1,3.5,1.6c0.1,0.4,0.1,0.9-0.1,1.6c-0.4,1.2-0.5,1.8-0.5,2c0,0.4,0.1,0.8,0.2,1.2c0.5-1.7,1.2-3.1,2.1-4.5
		c1.1-1.6,2.2-2.3,3.3-2.3c1.1,0,2.5,0.4,4.3,1.2c1.7,0.8,2.8,1.5,3.2,2c0.3,0.4,0.6,1.6,1,3.6c1.4-2.5,2.1-4,2.3-4.4
		c1.1-1.7,2.2-2.5,3.2-2.5c1.1,0,2.6,0.4,4.4,1.2c1.8,0.8,2.8,1.5,3.1,2.1C299.8,18.5,300.3,26.4,300.3,40.1z"/>
	<path class="st0" d="M329.5,16.2c0.1,0.3,0.1,0.5,0.1,0.8c0,0.6-0.2,1.2-0.8,1.8c-0.6,0.8-1,1.3-1.1,1.6L317.8,49
		c-0.1,0.7-0.1,1.3-0.2,2c-0.1,1.1-0.5,1.7-1,1.8c-0.2,0-0.4,0-0.5,0c-0.9,0-2-0.2-3.3-0.7c-1.3-0.5-2.3-1-2.8-1.4
		c-0.5-0.5-0.8-1-0.8-1.5c0-0.5,0.2-1.1,0.7-1.8c0.5-0.8,0.7-1.2,0.8-1.4l1.7-5.7l-8.1-19.9c-0.1-0.1-0.4-0.5-0.9-1
		c-0.4-0.4-0.7-1.1-0.8-2c-0.1-0.4,0.8-1.1,2.6-2.1c1.8-1,3.2-1.5,4.3-1.5c0.3,0,0.5,0,0.6,0.1c0.5,0.3,0.9,0.9,1.2,1.7
		c0.2,0.7,0.3,1.4,0.5,2.1l4.4,12.1l4.7-12.5c0.2-0.7,0.4-1.3,0.6-2c0.2-0.7,0.6-1.1,1.1-1.2c0.3-0.1,0.7-0.1,1.1-0.1
		c1.1,0,2.3,0.3,3.7,0.8C328.6,15.2,329.4,15.7,329.5,16.2z"/>
	<path class="st0" d="M358.3,43.9c-0.3,0.2-0.7,0.2-1,0.2c-0.9,0-2.3-1-4.3-3v9.6c0,0.3,0.2,0.7,0.4,1.4c0.3,0.7,0.4,1.2,0.4,1.5
		c0,0.7-0.5,1.1-1.4,1.1c-0.8,0-2-0.2-3.6-0.7c-1-0.3-1.9-0.6-2.9-0.9c-0.8-0.2-1.3-0.8-1.4-1.6c-0.1-0.3,0.1-1,0.4-1.9
		c0.3-1,0.5-1.5,0.5-1.7V15.4c0-1.1-0.1-1.8-0.2-2.1c-0.5-0.8-0.7-1.4-0.5-1.8c0.1-0.3,0.6-0.4,1.3-0.4c0.8,0,1.9,0.1,3.5,0.5
		c1.8,0.4,2.7,0.5,2.8,0.5c0.6,0.1,1,0.5,1.3,1.2c0,0.1,0,0.3,0,0.7c0,1.4-0.2,3.4-0.6,6.1c0.8-1.6,1.6-3.2,2.4-4.8c1.1-2,2-3,3-2.8
		c6.5,1.4,9.8,5.4,9.8,12.2c0,3.8-1,7.7-3.1,11.6C363,40.3,360.7,42.8,358.3,43.9z M357.2,20.7c-1.2-0.1-2.5,5.9-4,18
		c1.9-0.8,3.6-2.7,5.1-5.5c1.5-2.8,2.3-5.5,2.3-7.9C360.5,22.5,359.4,20.9,357.2,20.7z"/>
	<path class="st0" d="M392.2,34.5c0.3,0.5-0.4,2-2,4.4c-1.7,2.6-3.4,4.4-5.1,5.4c-0.2,0.1-0.5,0.1-0.9,0.1c-1.3,0-3-0.4-5.1-1.2
		c-2.2-0.8-3.7-1.7-4.4-2.6c-1.9-2.5-2.9-6-2.9-10.4c0-4.2,0.9-7.9,2.6-11.1c1.8-3.5,4.2-5.3,7-5.4c1,0,2.3,0.2,3.8,0.8
		c1.8,0.7,3.3,1.6,4.4,2.8c0.3,0.3,0.6,1.2,0.9,2.7c0.3,1.6,0.5,3.2,0.5,4.7c0,2.3-0.4,3.8-1.1,4.7c-3.4,1.1-6.9,1.7-10.5,1.9
		c-0.1,1.6,0.1,3.4,0.6,5.1c0.5,1.8,1,2.7,1.5,2.8c0.7,0,1.5-0.5,2.4-1.6c0.8-1,1.4-1.8,1.5-2.5c0.2-1,0.6-2,1-3.1
		c0.5-0.1,1.6,0.2,3.2,0.8C391,33.5,391.9,34,392.2,34.5z M383.3,19.2c-0.6-0.1-1.4,0.8-2.4,2.7c-1,1.9-1.6,3.6-1.8,5.4
		c1.5-0.1,2.7-0.4,3.6-1.1c0.5-0.4,0.8-2.1,0.8-5C383.6,19.9,383.5,19.3,383.3,19.2z"/>
	<path class="st0" d="M414.8,16.8c0.1,0.5,0,1-0.5,1.3c-0.4,0.2-0.8,0.4-1.2,0.6c-2.1,3.2-4.9,7.5-8.5,13c0,5.3,0,8,0,8.2
		c0,0.2,0.2,0.6,0.4,1.3c0.2,0.7,0.3,1.2,0.3,1.6c0,0.6-0.3,1.1-0.8,1.3c-0.4,0.2-0.9,0.2-1.5,0.2c-1.3,0-2.7-0.3-4.2-0.9
		c-1.9-0.7-2.9-1.5-2.9-2.5c0-0.3,0.1-0.8,0.4-1.5c0.3-0.7,0.4-1.2,0.4-1.6V18c-0.4-1.9-0.6-2.8-0.6-2.9c0-1,0.5-1.7,1.4-2
		c0.4-0.1,0.9-0.1,1.5-0.1c1.2,0,2.4,0.2,3.7,0.6c1.3,0.4,2,0.8,2.3,1.2c0.1,0.1,0.1,0.3,0.1,0.5c0,0.2-0.2,1-0.7,2.4v2.4
		c0.8-1.4,1.6-2.9,2.4-4.3c1-1.8,1.8-2.8,2.3-2.9c0.7-0.1,1.8,0.3,3.3,1.3S414.6,16.1,414.8,16.8z"/>
	<path class="st0" d="M434.5,38.3c0,1.8-0.6,3.3-1.8,4.4c-1.2,1.1-2.9,1.7-5.1,1.7c-0.5,0-1.1-0.1-1.8-0.2c-1.1-0.3-1.7-0.5-1.8-0.5
		c-0.6-0.1-1.2-0.3-1.8-0.4c-0.6-0.2-1.1-0.4-1.6-0.8c-0.7-0.7-1.5-1.6-2.1-2.8c-0.6-0.9-1.1-1.9-1.7-2.8c-0.5-1-0.8-1.6-0.8-1.8
		c0-0.5,0.3-0.8,1-1.1c0.2-0.1,0.5-0.1,0.9-0.1c1,0,2.3,0.1,3.8,0.3c1.5,0.2,2.3,0.4,2.5,0.5c0.1,0.2,0.3,1.1,0.6,2.9
		c0.2,1.5,0.5,2.3,1,2.3c0.8,0,1.1-1,1.1-3.1c0-2.6-0.7-4.3-2.1-5c-3.2-1.5-5.3-2.8-6.3-4c-1.2-1.4-1.9-3.6-1.9-6.5
		c0-1.9,0.5-3.7,1.5-5.4c1-1.7,2.2-2.7,3.6-3c0.6-0.1,2.5,0.5,5.8,1.9c0.3,0.1,1.2,0.3,2.6,0.6c1,0.2,1.8,0.5,2.2,1
		c0.6,0.8,1,2,1.1,3.6c0,1.2,0,2.5,0,3.7c0.2,1.1,0.3,1.8,0.3,2c0,0.9-0.5,1.5-1.3,1.6c-0.5,0.1-1.4-0.1-2.8-0.6
		c-1.5-0.5-2.5-1-2.9-1.5c-0.1-0.1-0.2-1.4-0.3-3.8c-0.1-2.2-0.3-3.4-0.7-3.4c-0.5,0-1,0.6-1.4,2c-0.4,1.3-0.7,2.6-0.7,4
		c0,1.8,0.4,2.9,1.2,3.4c1.6,0.9,3.3,1.8,4.9,2.7c1.6,0.9,2.7,1.9,3.4,2.8C434,34.5,434.5,36.2,434.5,38.3z"/>
	<path class="st0" d="M455.2,14.6c1.8,0.9,3.2,2.6,4.2,5.3c0.9,2.4,1.3,5.2,1.3,8.5c0,4.5-0.8,8.4-2.3,11.7
		c-1.7,3.5-3.8,5.1-6.3,4.8c-0.9-0.2-2.3-0.5-4.2-0.9c-1.4-0.2-2.6-0.4-3.7-0.8c-1.9-0.5-3.4-2.1-4.5-4.9c-1-2.5-1.5-5.5-1.5-8.9
		c0-3.4,0.5-6.6,1.6-9.4c1.2-3.1,2.9-5.2,5-6.5c0.4-0.2,0.9-0.3,1.5-0.3c0.7,0,2,0.2,4,0.6C451.5,14.1,453.1,14.2,455.2,14.6z
		 M449.6,19.1c-0.9,0-1.7,1.1-2.5,3.3c-0.8,2.2-1.1,4.3-1.1,6.3c0,2.4,0.3,4.8,0.8,7.1c0.6,2.5,1.4,3.9,2.2,4.1c1.1,0.2,2-1,2.8-3.6
		c0.8-2.5,1.2-5.3,1.2-8.4c0-1.7-0.2-3.4-0.6-5.1C451.8,20.3,450.8,19.1,449.6,19.1z"/>
	<path class="st0" d="M487.4,40.1c0.3,0.6,0.4,1.3,0.4,1.9c0,1-0.4,1.7-1.2,2.1c-0.2,0.1-0.6,0.1-1.2,0.1c-1.1,0-2.5-0.2-4-0.5
		c-1.6-0.4-2.5-0.7-2.8-1c-0.2-0.2-0.2-0.4-0.2-0.7c0-0.4,0.2-1,0.8-1.8c0.5-0.8,0.8-1.4,0.8-1.8c0.1-13.1,0-19.7-0.3-19.9
		c-0.5-0.2-1.6,1.3-3.5,4.5c-1.9,3.3-2.9,5.9-2.9,7.6V40c0.4,0.4,0.7,1,0.7,1.6c0,1.3-0.6,2.1-1.7,2.6c-0.1,0.1-0.3,0.1-0.6,0.1
		c-0.9,0-2.2-0.2-4-0.6c-1.7-0.4-2.7-0.8-2.9-1c-0.2-0.3-0.3-0.6-0.3-0.9c0-0.3,0.2-0.7,0.6-1.2c0.4-0.5,0.6-0.8,0.6-0.9V16.4
		c0-0.3-0.1-0.6-0.4-1.1c-0.3-0.4-0.3-0.8-0.2-1.1c0.2-0.7,0.7-1.1,1.5-1.3c0.5-0.1,1.8,0,3.8,0.5c2.1,0.5,3.3,1.1,3.5,1.6
		c0.1,0.4,0.1,0.9-0.1,1.6c-0.4,1.2-0.6,1.8-0.6,2c0,0.4,0.1,0.8,0.2,1.2c0.5-1.7,1.2-3.1,2.1-4.5c1.1-1.6,2.2-2.3,3.3-2.3
		c1.1,0,2.6,0.4,4.4,1.2c1.8,0.8,2.8,1.5,3.1,2.1C486.9,18.5,487.4,26.4,487.4,40.1z"/>
	<path class="st0" d="M515.3,42.2c0,0.5-0.2,0.9-0.6,1.2c-0.4,0.3-0.8,0.5-1.2,0.4c-4.1-0.6-6.4-1.4-6.9-2.4
		c-0.1-0.1-0.1-0.3-0.1-0.4c0-0.2,0.1-0.4,0.2-0.6c0.2-0.2,0.2-0.4,0.3-0.5c0-0.1,0.1-0.3,0.2-0.4c0.1-0.3,0.1-0.9,0-1.8
		c-0.4,0.3-1,1.1-1.8,2.4c-0.8,1.4-1.6,2.4-2.2,3c-1.1,1-2.3,1.5-3.7,1.5c-0.8,0-1.6-0.3-2.3-1c-0.4-0.3-1-0.9-2-1.9
		c-1.6-1.8-2.5-2.8-2.6-3c-0.7-0.9-1.1-1.8-1.1-2.6c0-0.3,0-0.5,0.1-0.8c0.6-2.9,2.6-5.7,5.9-8.4c2.4-1.9,5.8-3.9,10.2-6.1
		c0-1.1-0.3-1.8-0.8-2c-0.3-0.2-1.5,0.2-3.5,1.1s-3.4,1.8-4.2,2.4c-0.3,0.3-0.7,0.6-1.3,1.1c-0.6,0.3-1.1,0.4-1.5,0.3
		c-0.4-0.1-1.2-0.7-2.4-1.8c-1.2-1.1-1.8-1.8-1.9-2.2c-0.3-0.9,0-1.6,0.8-2.1c0,0,0.7-0.2,2-0.6c1.2-0.7,2.5-1.3,3.7-2
		c2.6-1.2,4.8-1.9,6.6-2c0.8,0,1.6,0.4,2.6,1.2c0.9,0.8,1.7,1.5,2.6,2.3c0.9,0.8,1.8,1.5,2.7,2.2c1.1,0.9,1.6,1.8,1.6,2.7v18.9
		C515.2,41.3,515.3,41.9,515.3,42.2z M507.3,27.6c-1.6,0.6-3,1.6-4.2,2.9c-0.9,1.1-1.7,2.1-2.6,3.2c-0.7,0.7-1.4,1.6-2,2.7
		c-0.6,1.1-0.9,1.9-0.9,2.5c0,0.3,0.1,0.4,0.3,0.4c0.7,0,2.3-1.5,4.7-4.5C505,31.7,506.6,29.3,507.3,27.6z"/>
	<path class="st0" d="M529.1,4.4c0,0.2-0.1,0.5-0.2,0.9c-0.2,0.4-0.2,0.6-0.3,0.8c-0.2,0.7-0.4,1.7-0.6,3.1v30.7
		c0,0.4,0.1,0.8,0.3,1.1c0.2,0.3,0.3,0.6,0.3,0.8c0,2.1-0.4,3.3-1.2,3.5c-0.3,0.1-1.4-0.2-3.2-0.7c-1.8-0.5-2.9-0.9-3.3-1.2
		c-0.7-0.6-1.1-1.2-1.1-1.8c0-0.1,0.1-0.3,0.2-0.5c0.1-0.2,0.2-0.4,0.2-0.9V5c0-0.2-0.1-0.4-0.2-0.6c-0.1-0.2-0.2-0.4-0.2-0.6
		c0.1-0.8,0.7-1.3,1.9-1.6c0.3-0.1,1-0.1,2.1,0c1.2,0.1,2.3,0.3,3.2,0.5C528.4,3.1,529.1,3.6,529.1,4.4z"/>
	<path class="st0" d="M558.3,43.9c-0.3,0.2-0.7,0.2-1,0.2c-0.9,0-2.3-1-4.3-3v9.6c0,0.3,0.2,0.7,0.4,1.4c0.3,0.7,0.4,1.2,0.4,1.5
		c0,0.7-0.5,1.1-1.4,1.1c-0.8,0-2-0.2-3.6-0.7c-1-0.3-1.9-0.6-2.9-0.9c-0.8-0.2-1.3-0.8-1.5-1.6c-0.1-0.3,0.1-1,0.4-1.9
		c0.3-1,0.5-1.5,0.5-1.7V15.4c0-1.1-0.1-1.8-0.2-2.1c-0.5-0.8-0.7-1.4-0.5-1.8c0.1-0.3,0.6-0.4,1.3-0.4c0.8,0,1.9,0.1,3.5,0.5
		c1.8,0.4,2.7,0.5,2.8,0.5c0.6,0.1,1,0.5,1.3,1.2c0,0.1,0,0.3,0,0.7c0,1.4-0.2,3.4-0.6,6.1c0.8-1.6,1.6-3.2,2.4-4.8c1.1-2,2-3,3-2.8
		c6.5,1.4,9.8,5.4,9.8,12.2c0,3.8-1,7.7-3.1,11.6C563,40.3,560.7,42.8,558.3,43.9z M557.2,20.7c-1.2-0.1-2.5,5.9-4,18
		c1.9-0.8,3.6-2.7,5.1-5.5c1.5-2.8,2.3-5.5,2.3-7.9C560.5,22.5,559.4,20.9,557.2,20.7z"/>
	<path class="st0" d="M594.6,42.2c0,0.5-0.2,0.9-0.6,1.2c-0.4,0.3-0.8,0.5-1.2,0.4c-4.1-0.6-6.4-1.4-6.9-2.4
		c-0.1-0.1-0.1-0.3-0.1-0.4c0-0.2,0.1-0.4,0.2-0.6c0.2-0.2,0.2-0.4,0.3-0.5c0-0.1,0.1-0.3,0.2-0.4c0.1-0.3,0.1-0.9,0-1.8
		c-0.4,0.3-1,1.1-1.8,2.4c-0.8,1.4-1.6,2.4-2.2,3c-1.1,1-2.3,1.5-3.7,1.5c-0.8,0-1.6-0.3-2.3-1c-0.4-0.3-1-0.9-2-1.9
		c-1.6-1.8-2.5-2.8-2.6-3c-0.7-0.9-1.1-1.8-1.1-2.6c0-0.3,0-0.5,0.1-0.8c0.6-2.9,2.6-5.7,5.9-8.4c2.4-1.9,5.8-3.9,10.2-6.1
		c0-1.1-0.3-1.8-0.8-2c-0.3-0.2-1.5,0.2-3.5,1.1s-3.4,1.8-4.2,2.4c-0.3,0.3-0.7,0.6-1.3,1.1c-0.6,0.3-1.1,0.4-1.5,0.3
		c-0.4-0.1-1.2-0.7-2.4-1.8c-1.2-1.1-1.8-1.8-1.9-2.2c-0.3-0.9,0-1.6,0.8-2.1c0,0,0.7-0.2,2-0.6c1.2-0.7,2.5-1.3,3.7-2
		c2.6-1.2,4.8-1.9,6.6-2c0.8,0,1.6,0.4,2.6,1.2c0.9,0.8,1.7,1.5,2.6,2.3c0.9,0.8,1.8,1.5,2.7,2.2c1.1,0.9,1.6,1.8,1.6,2.7v18.9
		C594.5,41.3,594.6,41.9,594.6,42.2z M586.6,27.6c-1.6,0.6-3,1.6-4.2,2.9c-0.9,1.1-1.7,2.1-2.6,3.2c-0.7,0.7-1.4,1.6-2,2.7
		c-0.6,1.1-0.9,1.9-0.9,2.5c0,0.3,0.1,0.4,0.3,0.4c0.7,0,2.3-1.5,4.7-4.5C584.3,31.7,585.9,29.3,586.6,27.6z"/>
	<path class="st0" d="M620,16.8c0,0-0.2,0.4-0.5,1c-0.2,0.5-0.4,0.8-0.4,1.1v21.9c0,5.5-2,9.1-6.1,10.6c-1.9,0.7-3.6,1.1-5.2,1.1
		c-2.3,0-4.2-0.8-5.9-2.3c-0.5-0.4-1.3-1.3-2.4-2.6c-0.1-0.1-0.4-0.4-1-1c-0.3-0.4-0.5-0.8-0.5-1.1c0-0.5,0.5-0.9,1.5-1.2
		c0.1,0,0.3-0.1,0.6-0.1c0.7,0,1.6,0.1,2.6,0.5c1,0.3,1.7,0.7,2.2,1.1c0.5,0.7,1.1,1.3,1.7,2c0.6,0.7,1.2,1.1,2,1.1
		c1.4,0.1,2.2-0.8,2.7-2.8c0.2-1,0.3-2.7,0.3-5.1c-0.1,0.1-0.4,0.6-1,1.3c-0.4,0.5-0.8,0.9-1,1.1c-0.4,0.3-0.8,0.5-1.2,0.5
		c-1.8,0-3.2-0.5-4.5-1.4c-3.6-3-5.3-7.4-5.3-13.2c0-3.7,0.8-7,2.3-10c1.6-3.1,3.8-5.1,6.4-5.9c0.2-0.1,0.4-0.1,0.5-0.1
		c0.5,0,1.1,0.2,1.8,0.8c0.6,0.4,1.1,0.9,1.7,1.4c0.2-0.6,0.4-1.1,0.6-1.7c0.2-0.5,0.6-0.9,1-0.9c0.7-0.1,1.9,0.1,3.7,0.7
		c1.8,0.6,2.8,1,3,1.4C620.1,15.7,620.2,16.3,620,16.8z M611.1,29.1c0.3-2.3,0.4-4.2,0.4-5.7c0-2.7-0.4-4.2-1.3-4.5
		c-0.7-0.3-1.5,0.9-2.5,3.5c-1,2.6-1.5,5-1.5,7.2c0,3.9,0.5,7,1.3,9.4C609.5,35.9,610.7,32.6,611.1,29.1z"/>
	<path class="st0" d="M643.9,34.5c0.3,0.5-0.4,2-2,4.4c-1.7,2.6-3.4,4.4-5.1,5.4c-0.2,0.1-0.5,0.1-0.9,0.1c-1.3,0-3-0.4-5.1-1.2
		c-2.2-0.8-3.7-1.7-4.4-2.6c-1.9-2.5-2.9-6-2.9-10.4c0-4.2,0.9-7.9,2.6-11.1c1.8-3.5,4.2-5.3,7-5.4c1,0,2.3,0.2,3.8,0.8
		c1.8,0.7,3.3,1.6,4.4,2.8c0.3,0.3,0.6,1.2,0.9,2.7c0.3,1.6,0.5,3.2,0.5,4.7c0,2.3-0.4,3.8-1.1,4.7c-3.4,1.1-6.9,1.7-10.5,1.9
		c-0.1,1.6,0.1,3.4,0.6,5.1c0.5,1.8,1,2.7,1.5,2.8c0.7,0,1.5-0.5,2.4-1.6c0.8-1,1.4-1.8,1.5-2.5c0.2-1,0.6-2,1-3.1
		c0.5-0.1,1.6,0.2,3.2,0.8C642.7,33.5,643.6,34,643.9,34.5z M635,19.2c-0.6-0.1-1.4,0.8-2.4,2.7c-1,1.9-1.6,3.6-1.8,5.4
		c1.5-0.1,2.7-0.4,3.6-1.1c0.5-0.4,0.8-2.1,0.8-5C635.3,19.9,635.2,19.3,635,19.2z"/>
</g>
</svg>
